<svg xmlns="http://www.w3.org/2000/svg" width="28" height="28" fill="rgb(0%,0%,0%)" xmlns:v="https://vecta.io/nano"><path d="M26.25 5.25H1.75C.781 5.25 0 6.031 0 7v14c0 .969.781 1.75 1.75 1.75h24.5c.969 0 1.75-.781 1.75-1.75V7c0-.969-.781-1.75-1.75-1.75zm0 15.75H1.75v-8.75h24.5zm0-12.25H1.75V7h24.5zM3.5 17.5H7v1.75H3.5zm5.25 0h3.5v1.75h-3.5zm9.625 1.75c.676 0 1.285-.262 1.75-.684.465.422 1.074.684 1.75.684 1.449 0 2.625-1.176 2.625-2.625S23.324 14 21.875 14c-.676 0-1.285.262-1.75.684-.465-.422-1.074-.684-1.75-.684-1.449 0-2.625 1.176-2.625 2.625s1.176 2.625 2.625 2.625zm0 0"/></svg>