<?xml version="1.0" encoding="UTF-8"?>
<svg xmlns="http://www.w3.org/2000/svg" xmlns:xlink="http://www.w3.org/1999/xlink" width="32px" height="32px" viewBox="0 0 32 32" version="1.1">
<g id="surface1">
<path style=" stroke:none;fill-rule:nonzero;fill:rgb(0%,0%,0%);fill-opacity:1;" d="M 7.636719 0.0546875 C 6.519531 0.195312 5.550781 0.890625 5.011719 1.9375 C 4.714844 2.515625 4.597656 3.101562 4.636719 3.816406 C 4.671875 4.421875 4.816406 4.878906 5.144531 5.421875 C 5.699219 6.335938 6.566406 7.078125 7.964844 7.835938 L 8.257812 7.996094 L 4.78125 8.015625 C 1.171875 8.039062 0.707031 8.050781 0.527344 8.132812 C 0.394531 8.199219 0.113281 8.5 0.0820312 8.621094 C 0.0429688 8.761719 0.0234375 14.695312 0.0625 15.097656 C 0.0898438 15.398438 0.105469 15.460938 0.1875 15.5625 C 0.445312 15.90625 0.582031 15.953125 1.375 15.988281 C 1.695312 16.003906 1.964844 16.023438 1.976562 16.035156 C 1.988281 16.050781 2.011719 19.4375 2.027344 23.558594 C 2.039062 27.796875 2.0625 31.148438 2.078125 31.261719 C 2.113281 31.492188 2.207031 31.628906 2.453125 31.824219 L 2.617188 31.953125 L 29.371094 31.953125 L 29.535156 31.824219 C 29.792969 31.621094 29.871094 31.492188 29.910156 31.242188 C 29.925781 31.125 29.949219 27.65625 29.960938 23.542969 C 29.972656 19.425781 29.996094 16.050781 30.011719 16.035156 C 30.023438 16.023438 30.285156 16.003906 30.597656 15.988281 C 31.382812 15.960938 31.539062 15.910156 31.769531 15.605469 C 31.890625 15.449219 31.894531 15.425781 31.925781 15.097656 C 31.964844 14.695312 31.945312 8.761719 31.90625 8.621094 C 31.871094 8.5 31.59375 8.195312 31.460938 8.132812 C 31.277344 8.050781 30.8125 8.035156 27.214844 8.015625 L 23.730469 7.996094 L 24.25 7.710938 C 25.59375 6.96875 26.492188 6.125 27.003906 5.125 C 27.296875 4.554688 27.40625 3.921875 27.339844 3.183594 C 27.210938 1.816406 26.292969 0.648438 25 0.207031 C 23.707031 -0.234375 21.886719 0.160156 20.121094 1.265625 C 19.300781 1.78125 18.753906 2.21875 18.011719 2.960938 C 17.1875 3.78125 16.65625 4.441406 16.15625 5.265625 C 16.074219 5.398438 16.003906 5.503906 15.992188 5.503906 C 15.984375 5.503906 15.875 5.34375 15.753906 5.148438 C 15.054688 4.011719 13.847656 2.695312 12.746094 1.871094 C 11.460938 0.898438 10.085938 0.265625 8.875 0.0820312 C 8.582031 0.0390625 7.890625 0.0234375 7.636719 0.0546875 Z M 8.929688 2.128906 C 9.804688 2.351562 10.976562 2.980469 11.742188 3.628906 C 12.347656 4.148438 13.277344 5.105469 13.636719 5.585938 C 14 6.070312 14.492188 6.9375 14.503906 7.117188 C 14.511719 7.207031 14.5 7.214844 14.363281 7.238281 C 13.96875 7.308594 12.179688 7.09375 11.1875 6.855469 C 8.695312 6.261719 6.851562 5.027344 6.644531 3.816406 C 6.539062 3.199219 6.902344 2.425781 7.425781 2.148438 C 7.707031 2 8.386719 1.988281 8.929688 2.128906 Z M 24.316406 2.070312 C 24.878906 2.214844 25.257812 2.734375 25.359375 3.484375 C 25.371094 3.570312 25.359375 3.730469 25.332031 3.863281 C 25.015625 5.371094 22.367188 6.78125 19.152344 7.148438 C 18.570312 7.21875 17.476562 7.253906 17.445312 7.207031 C 17.375 7.085938 18.101562 5.867188 18.621094 5.238281 C 18.976562 4.804688 19.859375 3.933594 20.261719 3.617188 C 21.234375 2.84375 22.457031 2.222656 23.300781 2.070312 C 23.625 2.011719 24.085938 2.011719 24.316406 2.070312 Z M 17.980469 19.96875 L 17.980469 30 L 14.007812 30 L 14.007812 9.933594 L 17.980469 9.933594 Z M 11.988281 12.003906 L 11.988281 14.007812 L 1.988281 14.007812 L 1.988281 12.027344 C 1.988281 10.933594 1.996094 10.03125 2.011719 10.023438 C 2.019531 10.011719 4.269531 10 7.011719 10 L 11.988281 10 Z M 29.992188 12.011719 L 30 14.007812 L 20 14.007812 L 20 10 L 29.984375 10.015625 Z M 11.988281 22.996094 L 11.988281 30 L 4.007812 30 L 4.007812 15.992188 L 11.988281 15.992188 Z M 27.980469 22.996094 L 27.980469 30 L 20 30 L 20 15.992188 L 27.980469 15.992188 Z M 27.980469 22.996094 "/>
</g>
</svg>
