<?xml version="1.0" encoding="UTF-8"?>
<svg xmlns="http://www.w3.org/2000/svg" xmlns:xlink="http://www.w3.org/1999/xlink" width="32px" height="32px" viewBox="0 0 32 32" version="1.1">
<g id="surface1">
<path style=" stroke:none;fill-rule:nonzero;fill:rgb(0%,0%,0%);fill-opacity:1;" d="M 28.785156 27.734375 L 26.941406 6.980469 C 26.910156 6.570312 26.566406 6.257812 26.148438 6.257812 L 22.265625 6.257812 C 22.257812 2.808594 19.449219 0 16 0 C 12.550781 0 9.742188 2.808594 9.734375 6.257812 L 5.851562 6.257812 C 5.441406 6.257812 5.097656 6.570312 5.058594 6.980469 L 3.214844 27.734375 C 3.214844 27.761719 3.214844 27.78125 3.214844 27.808594 C 3.214844 30.117188 5.34375 32 7.953125 32 L 24.046875 32 C 26.65625 32 28.785156 30.117188 28.785156 27.808594 C 28.785156 27.78125 28.785156 27.761719 28.785156 27.734375 Z M 16 1.589844 C 18.578125 1.589844 20.667969 3.683594 20.675781 6.257812 L 11.324219 6.257812 C 11.332031 3.683594 13.421875 1.589844 16 1.589844 Z M 24.046875 30.402344 L 7.953125 30.402344 C 6.230469 30.402344 4.824219 29.257812 4.804688 27.832031 L 6.582031 7.847656 L 9.734375 7.847656 L 9.734375 10.636719 C 9.734375 11.074219 10.089844 11.433594 10.527344 11.433594 C 10.964844 11.433594 11.324219 11.074219 11.324219 10.636719 L 11.324219 7.847656 L 20.675781 7.847656 L 20.675781 10.636719 C 20.675781 11.074219 21.035156 11.433594 21.472656 11.433594 C 21.910156 11.433594 22.265625 11.074219 22.265625 10.636719 L 22.265625 7.847656 L 25.417969 7.847656 L 27.195312 27.839844 C 27.175781 29.257812 25.769531 30.402344 24.046875 30.402344 Z M 24.046875 30.402344 "/>
</g>
</svg>
